<svg width="133" height="53" viewBox="0 0 133 53" fill="none" xmlns="http://www.w3.org/2000/svg">
<rect width="119" height="53" fill="#0852FF"/>
<rect width="13" height="54.1841" transform="matrix(1 0 0.207912 0.978148 108 0)" fill="#0852FF"/>
<path d="M15.146 19.3788C15.1368 19.2316 15.1138 19.0568 15.077 18.8544C15.0494 18.652 15.0172 18.4542 14.9804 18.261C14.9436 18.0678 14.8976 17.9114 14.8424 17.7918H15.9326C16.1166 17.7918 16.2408 17.7642 16.3052 17.709C16.3696 17.6446 16.4018 17.525 16.4018 17.3502V14.8662H13.4348C13.6096 15.0134 13.8074 15.2066 14.0282 15.4458C14.2582 15.6758 14.4744 15.9104 14.6768 16.1496C14.8884 16.3888 15.0494 16.6004 15.1598 16.7844C15.0678 16.8488 14.9344 16.95 14.7596 17.088C14.5848 17.2168 14.4146 17.3502 14.249 17.4882C14.0834 17.6262 13.9638 17.7366 13.8902 17.8194C13.7798 17.617 13.6188 17.387 13.4072 17.1294C13.2048 16.8718 12.9932 16.6188 12.7724 16.3704C12.5516 16.122 12.3492 15.9196 12.1652 15.7632L13.283 14.8662H12.3722V13.431H16.4018V12.327H12.0548V10.9332H14.87V9.70502H12.5102V8.36642H14.87V6.76562H16.4708V8.36642H18.941V9.70502H16.4708V10.9332H19.7V12.327H17.9612V13.431H19.6172V14.8662H17.9612V17.9712C17.9612 18.4588 17.8186 18.813 17.5334 19.0338C17.2574 19.2638 16.8342 19.3788 16.2638 19.3788H15.146ZM9.3362 19.3374V15.4044C8.913 15.5608 8.5174 15.7034 8.1494 15.8322C7.7906 15.961 7.51 16.053 7.3076 16.1082L6.935 14.4246C7.1926 14.3694 7.5376 14.2774 7.97 14.1486C8.4024 14.0106 8.8578 13.8634 9.3362 13.707V10.9194H8.522C8.4576 11.2598 8.3886 11.5818 8.315 11.8854C8.2414 12.1798 8.1678 12.4328 8.0942 12.6444C7.993 12.6076 7.8504 12.5754 7.6664 12.5478C7.4916 12.511 7.3122 12.4788 7.1282 12.4512C6.9442 12.4144 6.7832 12.396 6.6452 12.396C6.7924 12.0096 6.9212 11.568 7.0316 11.0712C7.1512 10.5652 7.2478 10.05 7.3214 9.52562C7.395 9.00122 7.4364 8.51362 7.4456 8.06282L8.867 8.20082C8.8578 8.36642 8.844 8.55962 8.8256 8.78042C8.8072 9.00122 8.7842 9.23122 8.7566 9.47042H9.3362V6.76562H10.8818V9.47042H12.0962V10.9194H10.8818V13.1826C11.4246 12.9986 11.834 12.8468 12.11 12.7272V14.259C11.8248 14.397 11.4154 14.5764 10.8818 14.7972V19.3374H9.3362ZM21.3284 19.3374C21.1996 19.1626 21.011 18.9694 20.7626 18.7578C20.5234 18.5554 20.3026 18.4082 20.1002 18.3162C20.7074 17.8286 21.195 17.295 21.563 16.7154C21.9402 16.1358 22.2208 15.4504 22.4048 14.6592C22.5888 13.868 22.69 12.9204 22.7084 11.8164H21.1076V7.27622H27.0554V11.8164H24.2678C24.2678 12.0004 24.2632 12.1844 24.254 12.3684C24.2448 12.5432 24.231 12.718 24.2126 12.8928H27.0002C27.0002 13.4356 26.9864 14.006 26.9588 14.604C26.9312 15.1928 26.8944 15.7448 26.8484 16.26C26.8024 16.7752 26.7518 17.1984 26.6966 17.5296C26.5862 18.2012 26.3378 18.6566 25.9514 18.8958C25.5742 19.135 25.0452 19.2546 24.3644 19.2546H23.6744C23.6652 19.0982 23.6376 18.9096 23.5916 18.6888C23.5548 18.4772 23.5134 18.2748 23.4674 18.0816C23.4214 17.8884 23.3754 17.7412 23.3294 17.64H24.0608C24.4196 17.64 24.6772 17.5894 24.8336 17.4882C24.99 17.3778 25.0958 17.18 25.151 16.8948C25.197 16.6556 25.2338 16.3842 25.2614 16.0806C25.2982 15.777 25.3258 15.4734 25.3442 15.1698C25.3626 14.857 25.3718 14.581 25.3718 14.3418H24.0332C23.8308 15.4734 23.5042 16.4394 23.0534 17.2398C22.6026 18.031 22.0276 18.7302 21.3284 19.3374ZM29.6774 19.2822C29.6682 19.135 29.6452 18.9602 29.6084 18.7578C29.5716 18.5646 29.5302 18.3714 29.4842 18.1782C29.4382 17.985 29.3876 17.8286 29.3324 17.709H30.4502C30.6342 17.709 30.763 17.6814 30.8366 17.6262C30.9194 17.5618 30.9608 17.4422 30.9608 17.2674V6.93122H32.5616V17.8884C32.5616 18.376 32.419 18.7302 32.1338 18.951C31.8578 19.1718 31.4346 19.2822 30.8642 19.2822H29.6774ZM28.0904 16.0254V8.03522H29.636V16.0254H28.0904ZM22.8326 10.326H25.3856V8.73902H22.8326V10.326ZM40.2068 18.8958C40.1976 18.7118 40.17 18.4036 40.124 17.9712C40.078 17.5296 40.0274 17.0144 39.9722 16.4256C39.917 15.8368 39.8526 15.225 39.779 14.5902C39.1442 14.6638 38.5186 14.742 37.9022 14.8248C37.2858 14.8984 36.7246 14.972 36.2186 15.0456C35.7218 15.11 35.317 15.1698 35.0042 15.225L34.7972 13.5414C35.1008 13.5138 35.501 13.477 35.9978 13.431C36.5038 13.385 37.0696 13.3298 37.6952 13.2654C38.3208 13.1918 38.9556 13.1228 39.5996 13.0584L39.3926 11.223C38.6842 11.3058 38.008 11.3932 37.364 11.4852C36.72 11.568 36.2232 11.6416 35.8736 11.706L35.6804 10.0086C36.0484 9.99022 36.5544 9.95342 37.1984 9.89822C37.8424 9.83382 38.514 9.76482 39.2132 9.69122C39.158 9.23122 39.1028 8.82182 39.0476 8.46302C39.0016 8.09502 38.9556 7.80062 38.9096 7.57982L40.6898 7.38662C40.699 7.59822 40.7174 7.88802 40.745 8.25602C40.7726 8.61482 40.8094 9.02882 40.8554 9.49802C41.5638 9.40602 42.2216 9.31862 42.8288 9.23582C43.4452 9.15302 43.919 9.08402 44.2502 9.02882L44.4572 10.7262C44.1536 10.7354 43.6844 10.7722 43.0496 10.8366C42.424 10.8918 41.7524 10.9562 41.0348 11.0298L41.2418 12.8652C41.8674 12.7916 42.4746 12.718 43.0634 12.6444C43.6522 12.5708 44.1858 12.5018 44.6642 12.4374C45.1426 12.3638 45.5198 12.304 45.7958 12.258L45.989 13.9416C45.759 13.96 45.4048 13.9922 44.9264 14.0382C44.448 14.0842 43.9006 14.1394 43.2842 14.2038C42.677 14.259 42.056 14.3234 41.4212 14.397C41.4948 15.0134 41.5684 15.6114 41.642 16.191C41.7156 16.7706 41.7846 17.2812 41.849 17.7228C41.9134 18.1644 41.9594 18.491 41.987 18.7026L40.2068 18.8958ZM53.5376 18.882C53.5284 18.7716 53.4916 18.5646 53.4272 18.261C53.372 17.9574 53.303 17.5894 53.2202 17.157C53.1374 16.7246 53.0454 16.2554 52.9442 15.7494C52.843 15.2434 52.7372 14.7374 52.6268 14.2314C52.0104 14.351 51.4492 14.4614 50.9432 14.5626C50.4464 14.6638 50.0922 14.742 49.8806 14.7972L49.6046 13.3896C49.8622 13.3804 50.2394 13.3436 50.7362 13.2792C51.233 13.2056 51.7758 13.1228 52.3646 13.0308C52.2358 12.4328 52.1208 11.9176 52.0196 11.4852C51.9184 11.0528 51.8448 10.7814 51.7988 10.671L53.1098 10.395C53.119 10.4962 53.1696 10.7722 53.2616 11.223C53.3536 11.6738 53.464 12.2028 53.5928 12.81C54.1632 12.7088 54.7152 12.6076 55.2488 12.5064C55.7824 12.396 56.247 12.2948 56.6426 12.2028C57.0382 12.1108 57.3142 12.0372 57.4706 11.982L58.2986 12.534C58.1422 12.8652 57.9444 13.2424 57.7052 13.6656C57.466 14.0888 57.2176 14.5074 56.96 14.9214C56.7116 15.3262 56.477 15.6758 56.2562 15.9702C56.1182 15.8506 55.925 15.7264 55.6766 15.5976C55.4282 15.4688 55.2396 15.3722 55.1108 15.3078C55.2764 15.1054 55.4742 14.8386 55.7042 14.5074C55.9342 14.167 56.1504 13.8404 56.3528 13.5276C55.5984 13.6564 54.7658 13.8128 53.855 13.9968C53.9654 14.512 54.0804 15.0272 54.2 15.5424C54.3196 16.0484 54.43 16.5176 54.5312 16.95C54.6324 17.3824 54.7198 17.7458 54.7934 18.0402C54.8762 18.3254 54.9314 18.5048 54.959 18.5784C54.7474 18.5876 54.4944 18.6244 54.2 18.6888C53.9148 18.7532 53.694 18.8176 53.5376 18.882ZM63.6944 17.9436L62.756 16.2462C63.4092 16.1082 64.0946 15.8828 64.8122 15.57C65.539 15.248 66.2658 14.8754 66.9926 14.4522C67.7194 14.0198 68.4094 13.5598 69.0626 13.0722C69.7158 12.5754 70.3046 12.074 70.829 11.568C71.3626 11.062 71.795 10.579 72.1262 10.119C72.163 10.2754 72.2228 10.4686 72.3056 10.6986C72.3976 10.9286 72.4942 11.154 72.5954 11.3748C72.6966 11.5864 72.784 11.752 72.8576 11.8716C72.4068 12.4512 71.841 13.04 71.1602 13.638C70.4886 14.2268 69.7434 14.7972 68.9246 15.3492C68.1058 15.892 67.2502 16.3888 66.3578 16.8396C65.4654 17.2904 64.5776 17.6584 63.6944 17.9436ZM65.171 11.8578C65.0514 11.729 64.8812 11.5772 64.6604 11.4024C64.4488 11.2276 64.2096 11.0436 63.9428 10.8504C63.6852 10.6572 63.4322 10.4824 63.1838 10.326C62.9354 10.1604 62.7192 10.0362 62.5352 9.95342L63.6392 8.55962C63.8232 8.66082 64.0394 8.78962 64.2878 8.94602C64.5362 9.10242 64.7892 9.27262 65.0468 9.45662C65.3136 9.64062 65.562 9.82462 65.792 10.0086C66.022 10.1834 66.206 10.3398 66.344 10.4778L65.171 11.8578ZM85.802 16.9086C85.5628 16.7522 85.2546 16.5268 84.8774 16.2324C84.5002 15.9288 84.0908 15.5976 83.6492 15.2388C83.2168 14.8708 82.789 14.5074 82.3658 14.1486C81.9518 13.7806 81.5746 13.4448 81.2342 13.1412C80.903 12.8376 80.6546 12.5984 80.489 12.4236C80.3694 12.2948 80.2636 12.2304 80.1716 12.2304C80.0888 12.2212 79.9738 12.2764 79.8266 12.396C79.5782 12.5892 79.2838 12.7962 78.9434 13.017C78.6122 13.2378 78.2626 13.454 77.8946 13.6656C77.5266 13.8772 77.1678 14.0704 76.8182 14.2452C76.4686 14.42 76.1558 14.5626 75.8798 14.673L74.8586 13.1412C75.1714 13.04 75.5348 12.8928 75.9488 12.6996C76.372 12.5064 76.8044 12.2902 77.246 12.051C77.6876 11.8118 78.1062 11.568 78.5018 11.3196C78.8974 11.062 79.224 10.8182 79.4816 10.5882C79.7576 10.3306 80.0106 10.2064 80.2406 10.2156C80.4706 10.2248 80.7282 10.3766 81.0134 10.671C81.1974 10.855 81.4734 11.108 81.8414 11.43C82.2094 11.7428 82.6234 12.0878 83.0834 12.465C83.5526 12.8422 84.0356 13.2194 84.5324 13.5966C85.0292 13.9738 85.503 14.3188 85.9538 14.6316C86.4138 14.9444 86.814 15.1928 87.1544 15.3768C86.9244 15.5608 86.6806 15.8 86.423 16.0944C86.1654 16.3796 85.9584 16.651 85.802 16.9086ZM84.3392 11.0022C83.962 11.0022 83.6354 10.8688 83.3594 10.602C83.0926 10.3352 82.9592 10.0132 82.9592 9.63602C82.9592 9.25882 83.0926 8.93682 83.3594 8.67002C83.6354 8.40322 83.962 8.26982 84.3392 8.26982C84.7164 8.26982 85.0384 8.40322 85.3052 8.67002C85.572 8.93682 85.7054 9.25882 85.7054 9.63602C85.7054 10.0132 85.572 10.3352 85.3052 10.602C85.0384 10.8688 84.7164 11.0022 84.3392 11.0022ZM84.3392 10.4226C84.5508 10.4226 84.7302 10.3444 84.8774 10.188C85.0338 10.0316 85.112 9.84762 85.112 9.63602C85.112 9.42442 85.0338 9.24502 84.8774 9.09782C84.7302 8.94142 84.5508 8.86322 84.3392 8.86322C84.1184 8.86322 83.9298 8.94142 83.7734 9.09782C83.6262 9.24502 83.5526 9.42442 83.5526 9.63602C83.5526 9.84762 83.6262 10.0316 83.7734 10.188C83.9298 10.3444 84.1184 10.4226 84.3392 10.4226ZM88.8656 13.983C88.8748 13.8542 88.8794 13.6794 88.8794 13.4586C88.8794 13.2378 88.8794 13.017 88.8794 12.7962C88.8794 12.5754 88.8748 12.4006 88.8656 12.2718C89.0404 12.281 89.3486 12.2902 89.7902 12.2994C90.241 12.3086 90.7746 12.3178 91.391 12.327C92.0166 12.3362 92.6836 12.3454 93.392 12.3546C94.1004 12.3546 94.8088 12.3546 95.5172 12.3546C96.2256 12.3546 96.8926 12.35 97.5182 12.3408C98.153 12.3316 98.7004 12.3224 99.1604 12.3132C99.6204 12.304 99.947 12.2902 100.14 12.2718C100.131 12.3914 100.122 12.5616 100.113 12.7824C100.113 13.0032 100.113 13.2286 100.113 13.4586C100.122 13.6794 100.126 13.8496 100.126 13.9692C99.8964 13.96 99.556 13.9508 99.1052 13.9416C98.6636 13.9324 98.1438 13.9232 97.5458 13.914C96.957 13.9048 96.3268 13.9002 95.6552 13.9002C94.9928 13.9002 94.3212 13.9002 93.6404 13.9002C92.9596 13.9002 92.311 13.9048 91.6946 13.914C91.0782 13.9232 90.5216 13.9324 90.0248 13.9416C89.5372 13.9508 89.1508 13.9646 88.8656 13.983ZM104.266 17.9436L103.328 16.2462C103.981 16.1082 104.667 15.8828 105.384 15.57C106.111 15.248 106.838 14.8754 107.565 14.4522C108.291 14.0198 108.981 13.5598 109.635 13.0722C110.288 12.5754 110.877 12.074 111.401 11.568C111.935 11.062 112.367 10.579 112.698 10.119C112.735 10.2754 112.795 10.4686 112.878 10.6986C112.97 10.9286 113.066 11.154 113.167 11.3748C113.269 11.5864 113.356 11.752 113.43 11.8716C112.979 12.4512 112.413 13.04 111.732 13.638C111.061 14.2268 110.315 14.7972 109.497 15.3492C108.678 15.892 107.822 16.3888 106.93 16.8396C106.037 17.2904 105.15 17.6584 104.266 17.9436ZM105.743 11.8578C105.623 11.729 105.453 11.5772 105.232 11.4024C105.021 11.2276 104.782 11.0436 104.515 10.8504C104.257 10.6572 104.004 10.4824 103.756 10.326C103.507 10.1604 103.291 10.0362 103.107 9.95342L104.211 8.55962C104.395 8.66082 104.611 8.78962 104.86 8.94602C105.108 9.10242 105.361 9.27262 105.619 9.45662C105.886 9.64062 106.134 9.82462 106.364 10.0086C106.594 10.1834 106.778 10.3398 106.916 10.4778L105.743 11.8578Z" fill="white"/>
<path d="M16.6734 40.5636C16.6114 40.39 16.5122 40.1978 16.3758 39.987C16.2518 39.7638 16.1154 39.553 15.9666 39.3546C15.8302 39.1438 15.7062 38.9888 15.5946 38.8896C16.351 38.5796 17.0516 38.2076 17.6964 37.7736C18.3536 37.3396 18.955 36.8622 19.5006 36.3414C19.0542 35.8082 18.6512 35.2006 18.2916 34.5186C17.9444 35.0394 17.5786 35.5168 17.1942 35.9508C16.9834 35.7772 16.7106 35.5912 16.3758 35.3928C16.0534 35.182 15.7868 35.027 15.576 34.9278C15.8612 34.6426 16.1588 34.2706 16.4688 33.8118C16.7912 33.3406 17.1012 32.8322 17.3988 32.2866C17.7088 31.7286 17.9878 31.1768 18.2358 30.6312C18.4838 30.0856 18.6698 29.5958 18.7938 29.1618L20.7282 29.6268C20.6538 29.8252 20.5794 30.0298 20.505 30.2406C20.4306 30.4514 20.3438 30.6622 20.2446 30.873H24.2064L24.7644 31.338C24.4668 32.2556 24.0948 33.1236 23.6484 33.942C23.2144 34.7604 22.7122 35.5292 22.1418 36.2484C22.7494 36.7444 23.4066 37.1722 24.1134 37.5318C24.8202 37.8914 25.5642 38.1952 26.3454 38.4432C26.1966 38.5796 26.0354 38.7656 25.8618 39.0012C25.7006 39.2244 25.5518 39.4538 25.4154 39.6894C25.2914 39.925 25.1922 40.1172 25.1178 40.266C24.3242 39.9436 23.5616 39.5716 22.83 39.15C22.0984 38.7284 21.4226 38.2448 20.8026 37.6992C20.2074 38.2696 19.5626 38.7966 18.8682 39.2802C18.1862 39.7638 17.4546 40.1916 16.6734 40.5636ZM11.4654 46.0878V38.4432C10.9694 38.5052 10.492 38.561 10.0332 38.6106C9.58681 38.6602 9.19001 38.6974 8.84281 38.7222L8.58241 36.825C8.76841 36.825 8.97301 36.825 9.19621 36.825C9.43181 36.8126 9.67361 36.8002 9.92161 36.7878C10.1324 36.5398 10.3556 36.2484 10.5912 35.9136C10.8392 35.5788 11.081 35.2254 11.3166 34.8534C10.895 34.5434 10.4176 34.2148 9.88441 33.8676C9.35121 33.508 8.85521 33.2104 8.39641 32.9748L9.36361 31.4124C9.47521 31.4744 9.59301 31.5426 9.71701 31.617C9.85341 31.6914 9.98981 31.772 10.1262 31.8588C10.2998 31.5736 10.4796 31.2574 10.6656 30.9102C10.8516 30.5506 11.0252 30.2034 11.1864 29.8686C11.3476 29.5214 11.4654 29.2362 11.5398 29.013L13.344 29.6826C13.096 30.1786 12.8046 30.7118 12.4698 31.2822C12.1474 31.8402 11.8436 32.3424 11.5584 32.7888C11.6948 32.8756 11.825 32.9624 11.949 33.0492C12.0854 33.136 12.2094 33.2228 12.321 33.3096C12.6186 32.8136 12.8914 32.3486 13.1394 31.9146C13.3874 31.4682 13.5796 31.0962 13.716 30.7986L15.4458 31.617C15.2102 32.0634 14.9064 32.578 14.5344 33.1608C14.1748 33.7436 13.7904 34.3388 13.3812 34.9464C12.9844 35.5416 12.5938 36.0996 12.2094 36.6204C12.5194 36.5956 12.8232 36.5708 13.1208 36.546C13.4184 36.5212 13.7036 36.4964 13.9764 36.4716C13.8896 36.2608 13.7966 36.0624 13.6974 35.8764C13.6106 35.6904 13.5238 35.523 13.437 35.3742L15.018 34.6302C15.204 34.9402 15.3962 35.306 15.5946 35.7276C15.793 36.1492 15.979 36.5708 16.1526 36.9924C16.3386 37.414 16.4812 37.7798 16.5804 38.0898C16.3448 38.1766 16.0534 38.2944 15.7062 38.4432C15.3714 38.592 15.0862 38.7284 14.8506 38.8524C14.7886 38.6044 14.7018 38.3254 14.5902 38.0154C14.4166 38.0402 14.2244 38.0712 14.0136 38.1084C13.8152 38.1332 13.6106 38.1642 13.3998 38.2014V46.0878H11.4654ZM23.4438 46.2366C22.861 45.9018 22.179 45.5608 21.3978 45.2136C20.629 44.8664 19.8478 44.5502 19.0542 44.265C18.2606 43.9798 17.529 43.7566 16.8594 43.5954L17.7894 41.7912C18.459 41.9648 19.1968 42.2004 20.0028 42.498C20.8088 42.7956 21.6086 43.118 22.4022 43.4652C23.2082 43.8124 23.9212 44.1596 24.5412 44.5068C24.442 44.6184 24.318 44.7796 24.1692 44.9904C24.0204 45.2136 23.8778 45.4368 23.7414 45.66C23.6174 45.8832 23.5182 46.0754 23.4438 46.2366ZM22.6068 42.4794C22.3216 42.281 21.9496 42.064 21.4908 41.8284C21.0444 41.5804 20.5794 41.351 20.0958 41.1402C19.6122 40.917 19.1844 40.7496 18.8124 40.638L19.7424 39.0198C20.0896 39.119 20.505 39.2802 20.9886 39.5034C21.4722 39.7266 21.9496 39.9622 22.4208 40.2102C22.9044 40.4458 23.295 40.6628 23.5926 40.8612C23.5058 40.9852 23.3942 41.1526 23.2578 41.3634C23.1214 41.5618 22.9912 41.7664 22.8672 41.9772C22.7556 42.188 22.6688 42.3554 22.6068 42.4794ZM9.95881 44.2092C9.73561 44.11 9.45661 44.017 9.12181 43.9302C8.78701 43.831 8.50801 43.7628 8.28481 43.7256C8.47081 43.3908 8.65061 42.9754 8.82421 42.4794C9.01021 41.971 9.17141 41.4502 9.30781 40.917C9.45661 40.3714 9.56201 39.8754 9.62401 39.429L11.2608 39.7452C11.1988 40.1916 11.0934 40.7 10.9446 41.2704C10.8082 41.8284 10.6532 42.374 10.4796 42.9072C10.306 43.428 10.1324 43.862 9.95881 44.2092ZM14.8506 43.5396C14.7514 43.2668 14.6274 42.901 14.4786 42.4422C14.3422 41.9834 14.2058 41.5122 14.0694 41.0286C13.9454 40.5326 13.8462 40.1048 13.7718 39.7452L15.4272 39.336C15.5016 39.6212 15.607 39.9932 15.7434 40.452C15.8798 40.8984 16.0224 41.3448 16.1712 41.7912C16.32 42.2252 16.4502 42.5786 16.5618 42.8514C16.3262 42.9134 16.0348 43.0126 15.6876 43.149C15.3528 43.2854 15.0738 43.4156 14.8506 43.5396ZM20.7654 34.9278C21.3482 34.159 21.807 33.3716 22.1418 32.5656H19.4448L19.3518 32.7144C19.5502 33.1236 19.7672 33.5142 20.0028 33.8862C20.2384 34.2582 20.4926 34.6054 20.7654 34.9278ZM32.3718 46.0134C32.3594 45.8026 32.3222 45.5422 32.2602 45.2322C32.2106 44.9346 32.1486 44.6432 32.0742 44.358C32.0122 44.0604 31.944 43.8248 31.8696 43.6512H33.99C34.2628 43.6512 34.455 43.614 34.5666 43.5396C34.6906 43.4528 34.7526 43.2792 34.7526 43.0188V34.1838H35.9616C36.1972 34.0102 36.4762 33.7994 36.7986 33.5514C37.121 33.3034 37.4434 33.043 37.7658 32.7702C38.0882 32.4974 38.3548 32.2618 38.5656 32.0634H27.7218V29.9616H42.6018L43.2714 30.873C42.8746 31.245 42.4034 31.6728 41.8578 32.1564C41.3246 32.64 40.7604 33.1298 40.1652 33.6258C39.5824 34.1218 39.0182 34.5868 38.4726 35.0208C37.927 35.4548 37.4496 35.8144 37.0404 36.0996V43.986C37.0404 44.6928 36.8358 45.2074 36.4266 45.5298C36.0298 45.8522 35.416 46.0134 34.5852 46.0134H32.3718ZM51.7902 45.7344C50.7362 45.6972 49.9178 45.4058 49.335 44.8602C48.7522 44.3146 48.467 43.6388 48.4794 42.8328C48.4918 42.2996 48.6654 41.8222 49.0002 41.4006C49.335 40.979 49.8 40.6504 50.3952 40.4148C50.9904 40.1792 51.6786 40.08 52.4598 40.1172C52.6706 40.1172 52.869 40.1296 53.055 40.1544C53.2534 40.1668 53.4518 40.1854 53.6502 40.2102L53.5944 38.0712C53.3836 38.0836 53.1666 38.0898 52.9434 38.0898C52.7326 38.0898 52.5218 38.0898 52.311 38.0898C51.567 38.0898 50.978 38.034 50.544 37.9224C50.1224 37.7984 49.7814 37.6 49.521 37.3272C49.273 37.042 49.025 36.6514 48.777 36.1554L50.5254 35.2812C50.699 35.616 50.9036 35.833 51.1392 35.9322C51.3748 36.019 51.7778 36.0624 52.3482 36.0624C52.5342 36.0624 52.7264 36.0624 52.9248 36.0624C53.1356 36.05 53.3464 36.0376 53.5572 36.0252C53.5448 35.6904 53.5324 35.3494 53.52 35.0022C53.52 34.655 53.5138 34.314 53.5014 33.9792C52.5962 34.0288 51.7406 34.066 50.9346 34.0908C50.1286 34.1032 49.5024 34.1032 49.056 34.0908L48.963 32.0076C49.397 32.0448 50.0232 32.0634 50.8416 32.0634C51.66 32.051 52.5342 32.0262 53.4642 31.989C53.4518 31.5426 53.4456 31.1148 53.4456 30.7056C53.4456 30.2964 53.4456 29.9182 53.4456 29.571H55.6032C55.6032 29.9058 55.6032 30.2654 55.6032 30.6498C55.6032 31.0342 55.6094 31.4372 55.6218 31.8588C56.465 31.7968 57.24 31.7286 57.9468 31.6542C58.6536 31.5674 59.1744 31.4806 59.5092 31.3938V33.4398C59.1744 33.5142 58.6536 33.5886 57.9468 33.663C57.2524 33.725 56.4836 33.787 55.6404 33.849C55.6528 34.1838 55.659 34.5248 55.659 34.872C55.6714 35.2068 55.6838 35.5416 55.6962 35.8764C56.4278 35.802 57.1222 35.7152 57.7794 35.616C58.4366 35.5044 58.9574 35.3866 59.3418 35.2626V37.4388C58.883 37.538 58.3374 37.631 57.705 37.7178C57.085 37.8046 56.4278 37.879 55.7334 37.941C55.7582 38.437 55.7706 38.9144 55.7706 39.3732C55.783 39.832 55.7954 40.2598 55.8078 40.6566C56.7254 40.9046 57.5934 41.227 58.4118 41.6238C59.2302 42.0206 59.999 42.4546 60.7182 42.9258C60.557 43.0498 60.3772 43.2358 60.1788 43.4838C59.9928 43.7194 59.8192 43.9612 59.658 44.2092C59.4968 44.4572 59.3728 44.668 59.286 44.8416C58.2444 43.9612 57.1036 43.2668 55.8636 42.7584C55.8512 43.6884 55.5226 44.4262 54.8778 44.9718C54.2454 45.5298 53.2162 45.784 51.7902 45.7344ZM51.8646 43.7442C52.5094 43.769 52.9744 43.676 53.2596 43.4652C53.5448 43.2544 53.6874 42.9754 53.6874 42.6282V42.1074C53.427 42.0578 53.1666 42.0206 52.9062 41.9958C52.6582 41.971 52.4102 41.9586 52.1622 41.9586C51.6414 41.9586 51.2446 42.0454 50.9718 42.219C50.699 42.3926 50.5626 42.6034 50.5626 42.8514C50.5626 43.4094 50.9966 43.707 51.8646 43.7442ZM77.235 45.4554C75.9454 45.3066 74.8046 44.9284 73.8126 44.3208C72.8206 43.7132 72.0456 42.9258 71.4876 41.9586C70.942 40.9914 70.6692 39.8878 70.6692 38.6478C70.6692 37.755 70.88 36.8436 71.3016 35.9136C71.7356 34.9836 72.3804 34.159 73.236 33.4398C72.244 33.601 71.252 33.7746 70.26 33.9606C69.2804 34.1466 68.3876 34.3202 67.5816 34.4814C66.788 34.6426 66.1742 34.779 65.7402 34.8906L65.238 32.4912C65.6472 32.4664 66.2114 32.4106 66.9306 32.3238C67.6622 32.237 68.4806 32.1316 69.3858 32.0076C70.3034 31.8712 71.2458 31.7286 72.213 31.5798C73.1926 31.4186 74.135 31.2574 75.0402 31.0962C75.9578 30.935 76.7762 30.78 77.4954 30.6312C78.227 30.47 78.7974 30.3274 79.2066 30.2034L79.8018 32.4726C79.6034 32.485 79.3616 32.5098 79.0764 32.547C78.8036 32.5842 78.4936 32.6276 78.1464 32.6772C77.4644 32.764 76.8134 32.9748 76.1934 33.3096C75.5734 33.6444 75.0154 34.0784 74.5194 34.6116C74.0358 35.1448 73.6514 35.7524 73.3662 36.4344C73.081 37.1164 72.9384 37.8542 72.9384 38.6478C72.9384 39.6026 73.1802 40.3962 73.6638 41.0286C74.1474 41.661 74.8046 42.157 75.6354 42.5166C76.4786 42.8638 77.421 43.0994 78.4626 43.2234C78.2766 43.4094 78.0968 43.645 77.9232 43.9302C77.7496 44.203 77.6008 44.4758 77.4768 44.7486C77.3528 45.0338 77.2722 45.2694 77.235 45.4554ZM80.4714 36.918C80.2358 36.5336 79.9196 36.1244 79.5228 35.6904C79.1384 35.2564 78.785 34.9092 78.4626 34.6488L79.467 33.8118C79.653 33.9606 79.8762 34.1776 80.1366 34.4628C80.4094 34.748 80.676 35.0394 80.9364 35.337C81.1968 35.6222 81.3952 35.8702 81.5316 36.081L80.4714 36.918ZM78.7974 38.3316C78.5618 37.9348 78.2518 37.5194 77.8674 37.0854C77.483 36.6514 77.1296 36.298 76.8072 36.0252L77.8302 35.2068C78.0162 35.3556 78.2394 35.5726 78.4998 35.8578C78.7602 36.143 79.0144 36.4344 79.2624 36.732C79.5228 37.0296 79.7212 37.2776 79.8576 37.476L78.7974 38.3316ZM89.0832 46.1064C89.0212 45.9204 88.9282 45.7034 88.8042 45.4554C88.6802 45.2198 88.55 44.9842 88.4136 44.7486C88.2772 44.513 88.147 44.327 88.023 44.1906C88.9902 43.9674 90.0132 43.6264 91.092 43.1676C92.1708 42.7088 93.1814 42.1818 94.1238 41.5866C93.851 40.8922 93.6154 40.142 93.417 39.336L90.0132 39.6522L89.8272 37.7922L93.0264 37.4946C93.0016 37.3334 92.9768 37.1722 92.952 37.011C92.9272 36.8374 92.9024 36.6638 92.8776 36.4902L90.7386 36.6948L90.5712 34.965L92.6916 34.779C92.6792 34.6178 92.6668 34.4566 92.6544 34.2954C92.642 34.1218 92.6234 33.9544 92.5986 33.7932L90.2922 33.9792L90.1434 32.1378L92.5056 31.9332C92.4932 31.4992 92.4808 31.0528 92.4684 30.594C92.4684 30.1228 92.4684 29.6392 92.4684 29.1432H94.6074C94.6074 29.602 94.6074 30.0546 94.6074 30.501C94.6074 30.935 94.6136 31.3566 94.626 31.7658L96.7836 31.5984C96.548 31.3256 96.2938 31.059 96.021 30.7986C95.7482 30.5258 95.4816 30.2902 95.2212 30.0918L96.7092 28.9944C97.0192 29.2176 97.3602 29.509 97.7322 29.8686C98.1166 30.2158 98.4266 30.5258 98.6622 30.7986C98.5258 30.873 98.3708 30.9784 98.1972 31.1148C98.0236 31.2512 97.8562 31.3876 97.695 31.524L99.462 31.3938L99.6108 33.2352L94.719 33.6258C94.7314 33.787 94.7376 33.9482 94.7376 34.1094C94.75 34.2706 94.7624 34.4318 94.7748 34.593L98.8854 34.2024L99.0528 35.9136L94.9608 36.3042C94.9856 36.4654 95.0104 36.6328 95.0352 36.8064C95.06 36.9676 95.0848 37.1288 95.1096 37.29L99.6852 36.8622L99.8712 38.7036L97.4532 38.9454L98.9226 40.2102C98.3522 40.8922 97.6578 41.5556 96.8394 42.2004C97.0378 42.4856 97.2486 42.746 97.4718 42.9816C97.7074 43.2172 97.9492 43.428 98.1972 43.614C98.4824 42.932 98.6746 42.2934 98.7738 41.6982C98.9846 41.8222 99.2822 41.9648 99.6666 42.126C100.051 42.2872 100.373 42.3988 100.634 42.4608C100.535 43.0312 100.392 43.5892 100.206 44.1348C100.02 44.668 99.8216 45.1268 99.6108 45.5112C99.3752 45.9576 99.0528 46.2056 98.6436 46.2552C98.2344 46.3048 97.8438 46.2056 97.4718 45.9576C97.0254 45.6476 96.5976 45.288 96.1884 44.8788C95.7916 44.4696 95.4258 43.9922 95.091 43.4466C93.1814 44.6494 91.1788 45.536 89.0832 46.1064ZM84.2286 46.1436C84.1294 46.0196 83.9868 45.8708 83.8008 45.6972C83.6148 45.536 83.4164 45.3686 83.2056 45.195C83.0072 45.0214 82.8212 44.8788 82.6476 44.7672C83.466 44.2092 84.2038 43.5148 84.861 42.684C85.5306 41.8532 86.0948 40.9666 86.5536 40.0242C86.2808 39.8506 85.9956 39.6894 85.698 39.5406C85.4128 39.3794 85.1462 39.2368 84.8982 39.1128C84.7742 39.3112 84.6502 39.5034 84.5262 39.6894C84.4146 39.863 84.2906 40.0366 84.1542 40.2102C83.931 40.0118 83.6644 39.8072 83.3544 39.5964C83.0568 39.3856 82.7654 39.212 82.4802 39.0756C82.9514 38.5176 83.3668 37.8294 83.7264 37.011C84.086 36.1926 84.3774 35.337 84.6006 34.4442C84.8238 33.539 84.9602 32.6958 85.0098 31.9146H83.1126V30.0174H90.5154V31.9146H87.1116C87.0992 32.2122 87.0682 32.5284 87.0186 32.8632C86.969 33.1856 86.9132 33.5204 86.8512 33.8676H89.9946C89.9574 35.3804 89.728 36.8932 89.3064 38.406C88.8848 39.9064 88.2586 41.32 87.4278 42.6468C86.597 43.9736 85.5306 45.1392 84.2286 46.1436ZM87.3162 38.034C87.5518 37.2776 87.7006 36.5212 87.7626 35.7648H86.349C86.2622 36.0252 86.1692 36.2918 86.07 36.5646C85.9832 36.825 85.884 37.0792 85.7724 37.3272C86.0204 37.4388 86.2808 37.5566 86.5536 37.6806C86.8264 37.8046 87.0806 37.9224 87.3162 38.034ZM95.8908 40.3404C96.176 40.1048 96.4364 39.8754 96.672 39.6522C96.92 39.4166 97.1432 39.181 97.3416 38.9454L95.5002 39.1314C95.6118 39.5778 95.742 39.9808 95.8908 40.3404ZM108.818 46.0134C108.644 45.7158 108.396 45.3872 108.074 45.0276C107.751 44.6804 107.441 44.4014 107.144 44.1906C108.843 43.521 110.151 42.5166 111.068 41.1774C111.998 39.8382 112.463 38.2014 112.463 36.267C112.463 35.089 112.253 34.2706 111.831 33.8118C111.422 33.3406 110.926 33.1236 110.343 33.1608C109.884 33.1856 109.456 33.446 109.06 33.942C108.663 34.4256 108.371 35.1262 108.185 36.0438C108.012 36.9614 108.018 38.0836 108.204 39.4104C108.03 39.4228 107.801 39.4538 107.516 39.5034C107.243 39.553 106.976 39.6088 106.716 39.6708C106.468 39.7328 106.282 39.7886 106.158 39.8382C106.071 39.3794 105.997 38.8028 105.935 38.1084C105.885 37.414 105.842 36.6638 105.805 35.8578C105.78 35.0518 105.761 34.2458 105.749 33.4398C105.749 32.6338 105.761 31.8898 105.786 31.2078C105.811 30.5258 105.848 29.974 105.898 29.5524L108.167 29.757C108.105 30.0546 108.043 30.439 107.981 30.9102C107.931 31.369 107.888 31.8588 107.851 32.3796C107.813 32.9004 107.789 33.4026 107.776 33.8862C108.061 33.105 108.471 32.4602 109.004 31.9518C109.549 31.431 110.151 31.1644 110.808 31.152C111.564 31.1396 112.24 31.3256 112.835 31.71C113.431 32.082 113.902 32.6524 114.249 33.4212C114.596 34.1776 114.77 35.1262 114.77 36.267C114.77 38.6602 114.243 40.6442 113.189 42.219C112.147 43.7814 110.69 45.0462 108.818 46.0134Z" fill="white"/>
<g clip-path="url(#clip0_188_1787)">
<path d="M5.04102 24.1715H118.462" stroke="white" stroke-width="1.00819" stroke-linecap="round"/>
</g>
<defs>
<clipPath id="clip0_188_1787">
<rect width="116.95" height="5" fill="white" transform="translate(3.02539 21.34)"/>
</clipPath>
</defs>
</svg>
